<svg width="1600" height="1000" viewBox="0 0 1600 1000" fill="none" xmlns="http://www.w3.org/2000/svg">
  <defs>
    <filter id="panelShadow" x="-20%" y="-20%" width="140%" height="140%">
      <feDropShadow dx="0" dy="12" stdDeviation="18" flood-color="#000000" flood-opacity="0.42"/>
    </filter>
    <pattern id="dotGrid" width="24" height="24" patternUnits="userSpaceOnUse">
      <circle cx="12" cy="12" r="1" fill="#1E1E1E"/>
    </pattern>
  </defs>

  <rect width="1600" height="1000" rx="30" fill="#000000"/>
  <rect x="24" y="24" width="1552" height="952" rx="24" fill="#040404" stroke="#191919"/>

  <rect x="48" y="48" width="1504" height="58" rx="16" fill="#0A0A0A" stroke="#202020"/>
  <text x="78" y="85" fill="#FFFFFF" font-size="26" font-family="SF Pro Display, Inter, Helvetica, sans-serif" font-weight="700">Mindmap</text>
  <text x="190" y="85" fill="#787878" font-size="15" font-family="SF Pro Text, Inter, Helvetica, sans-serif">Launch Strategy</text>

  <rect x="336" y="63" width="94" height="28" rx="14" fill="#111111" stroke="#2B2B2B"/>
  <text x="360" y="82" fill="#FFFFFF" font-size="13" font-family="SF Pro Text, Inter, Helvetica, sans-serif">Brainstorm</text>
  <text x="450" y="82" fill="#767676" font-size="13" font-family="SF Pro Text, Inter, Helvetica, sans-serif">Focus</text>
  <text x="506" y="82" fill="#767676" font-size="13" font-family="SF Pro Text, Inter, Helvetica, sans-serif">Present</text>

  <rect x="1184" y="63" width="92" height="28" rx="14" fill="#111111" stroke="#2B2B2B"/>
  <text x="1214" y="82" fill="#D8D8D8" font-size="13" font-family="SF Pro Text, Inter, Helvetica, sans-serif">84%</text>
  <rect x="1288" y="63" width="68" height="28" rx="14" fill="#111111" stroke="#2B2B2B"/>
  <text x="1310" y="82" fill="#D8D8D8" font-size="13" font-family="SF Pro Text, Inter, Helvetica, sans-serif">Fit</text>
  <rect x="1368" y="63" width="158" height="28" rx="14" fill="#111111" stroke="#2B2B2B"/>
  <text x="1392" y="82" fill="#676767" font-size="13" font-family="SF Pro Text, Inter, Helvetica, sans-serif">Search nodes</text>

  <rect x="48" y="126" width="1504" height="826" rx="20" fill="#000000" stroke="#242424"/>
  <rect x="48" y="126" width="1504" height="826" rx="20" fill="url(#dotGrid)"/>
  <text x="78" y="164" fill="#9A9A9A" font-size="15" font-family="SF Pro Text, Inter, Helvetica, sans-serif">Canvas</text>
  <text x="1394" y="164" fill="#5E5E5E" font-size="13" font-family="SF Pro Text, Inter, Helvetica, sans-serif">floating inspector</text>

  <path d="M246 398C332 398 364 304 456 272" stroke="#2E2E2E" stroke-width="3.5" stroke-linecap="round"/>
  <path d="M246 398C336 398 370 390 470 406" stroke="#2E2E2E" stroke-width="3.5" stroke-linecap="round"/>
  <path d="M246 398C334 398 380 520 484 576" stroke="#2E2E2E" stroke-width="3.5" stroke-linecap="round"/>
  <path d="M608 272C684 272 716 222 794 200" stroke="#2E2E2E" stroke-width="3.5" stroke-linecap="round"/>
  <path d="M608 272C684 272 714 316 800 344" stroke="#2E2E2E" stroke-width="3.5" stroke-linecap="round"/>
  <path d="M632 406C706 406 742 446 834 484" stroke="#2E2E2E" stroke-width="3.5" stroke-linecap="round"/>
  <path d="M620 576C712 576 756 648 876 716" stroke="#2E2E2E" stroke-width="3.5" stroke-linecap="round"/>

  <g filter="url(#panelShadow)">
    <rect x="128" y="346" width="118" height="104" rx="18" fill="#101010" stroke="#60A5FA" stroke-width="2"/>
    <text x="152" y="388" fill="#FFFFFF" font-size="20" font-family="SF Pro Display, Inter, Helvetica, sans-serif" font-weight="700">Launch</text>
    <text x="152" y="416" fill="#B5B5B5" font-size="15" font-family="SF Pro Text, Inter, Helvetica, sans-serif">strategy</text>
    <rect x="152" y="360" width="40" height="18" rx="9" fill="#0F172A"/>
    <text x="164" y="373" fill="#93C5FD" font-size="10" font-family="SF Pro Text, Inter, Helvetica, sans-serif">ROOT</text>
  </g>

  <g filter="url(#panelShadow)">
    <rect x="456" y="220" width="152" height="104" rx="18" fill="#141414" stroke="#343434"/>
    <text x="482" y="262" fill="#FFFFFF" font-size="20" font-family="SF Pro Display, Inter, Helvetica, sans-serif" font-weight="700">Audience</text>
    <text x="482" y="290" fill="#A0A0A0" font-size="15" font-family="SF Pro Text, Inter, Helvetica, sans-serif">teams, leads,</text>
    <text x="482" y="310" fill="#A0A0A0" font-size="15" font-family="SF Pro Text, Inter, Helvetica, sans-serif">operators</text>
  </g>

  <g filter="url(#panelShadow)">
    <rect x="470" y="354" width="162" height="104" rx="18" fill="#141414" stroke="#60A5FA" stroke-width="2"/>
    <text x="496" y="396" fill="#FFFFFF" font-size="20" font-family="SF Pro Display, Inter, Helvetica, sans-serif" font-weight="700">User Flow</text>
    <text x="496" y="424" fill="#A0A0A0" font-size="15" font-family="SF Pro Text, Inter, Helvetica, sans-serif">idea capture</text>
    <text x="496" y="444" fill="#A0A0A0" font-size="15" font-family="SF Pro Text, Inter, Helvetica, sans-serif">to AI polish</text>
  </g>

  <g filter="url(#panelShadow)">
    <rect x="484" y="524" width="136" height="104" rx="18" fill="#141414" stroke="#343434"/>
    <text x="510" y="566" fill="#FFFFFF" font-size="20" font-family="SF Pro Display, Inter, Helvetica, sans-serif" font-weight="700">Risks</text>
    <text x="510" y="594" fill="#A0A0A0" font-size="15" font-family="SF Pro Text, Inter, Helvetica, sans-serif">sync, scope,</text>
    <text x="510" y="614" fill="#A0A0A0" font-size="15" font-family="SF Pro Text, Inter, Helvetica, sans-serif">clarity</text>
  </g>

  <g filter="url(#panelShadow)">
    <rect x="794" y="154" width="154" height="92" rx="18" fill="#141414" stroke="#343434"/>
    <text x="820" y="194" fill="#FFFFFF" font-size="20" font-family="SF Pro Display, Inter, Helvetica, sans-serif" font-weight="700">Prompting</text>
    <text x="820" y="222" fill="#A0A0A0" font-size="15" font-family="SF Pro Text, Inter, Helvetica, sans-serif">starter map</text>
  </g>

  <g filter="url(#panelShadow)">
    <rect x="800" y="300" width="180" height="108" rx="18" fill="#141414" stroke="#343434"/>
    <text x="826" y="342" fill="#FFFFFF" font-size="20" font-family="SF Pro Display, Inter, Helvetica, sans-serif" font-weight="700">Node Metadata</text>
    <text x="826" y="370" fill="#A0A0A0" font-size="15" font-family="SF Pro Text, Inter, Helvetica, sans-serif">tags, status,</text>
    <text x="826" y="390" fill="#A0A0A0" font-size="15" font-family="SF Pro Text, Inter, Helvetica, sans-serif">color</text>
  </g>

  <g filter="url(#panelShadow)">
    <rect x="834" y="458" width="180" height="108" rx="18" fill="#141414" stroke="#343434"/>
    <text x="860" y="500" fill="#FFFFFF" font-size="20" font-family="SF Pro Display, Inter, Helvetica, sans-serif" font-weight="700">AI Actions</text>
    <text x="860" y="528" fill="#A0A0A0" font-size="15" font-family="SF Pro Text, Inter, Helvetica, sans-serif">send branch to</text>
    <text x="860" y="548" fill="#A0A0A0" font-size="15" font-family="SF Pro Text, Inter, Helvetica, sans-serif">Nimbalyst chat</text>
  </g>

  <g filter="url(#panelShadow)">
    <rect x="882" y="676" width="206" height="108" rx="18" fill="#141414" stroke="#343434"/>
    <text x="908" y="718" fill="#FFFFFF" font-size="20" font-family="SF Pro Display, Inter, Helvetica, sans-serif" font-weight="700">Implementation</text>
    <text x="908" y="746" fill="#A0A0A0" font-size="15" font-family="SF Pro Text, Inter, Helvetica, sans-serif">freeform canvas +</text>
    <text x="908" y="766" fill="#A0A0A0" font-size="15" font-family="SF Pro Text, Inter, Helvetica, sans-serif">graph JSON</text>
  </g>

  <g filter="url(#panelShadow)">
    <rect x="1114" y="186" width="356" height="318" rx="20" fill="#111111" stroke="#2A2A2A"/>
    <text x="1140" y="222" fill="#FFFFFF" font-size="22" font-family="SF Pro Display, Inter, Helvetica, sans-serif" font-weight="700">Inspector</text>
    <circle cx="1434" cy="220" r="7" fill="#2D2D2D"/>
    <circle cx="1408" cy="220" r="7" fill="#2D2D2D"/>
    <text x="1140" y="248" fill="#808080" font-size="13" font-family="SF Pro Text, Inter, Helvetica, sans-serif">Selected node</text>

    <rect x="1140" y="268" width="304" height="50" rx="14" fill="#0A0A0A" stroke="#2E2E2E"/>
    <text x="1158" y="299" fill="#FFFFFF" font-size="17" font-family="SF Pro Display, Inter, Helvetica, sans-serif">User Flow</text>

    <rect x="1140" y="330" width="304" height="78" rx="14" fill="#0A0A0A" stroke="#2E2E2E"/>
    <text x="1158" y="356" fill="#808080" font-size="13" font-family="SF Pro Text, Inter, Helvetica, sans-serif">Note</text>
    <text x="1158" y="380" fill="#CFCFCF" font-size="14" font-family="SF Pro Text, Inter, Helvetica, sans-serif">tight path from idea capture</text>
    <text x="1158" y="400" fill="#CFCFCF" font-size="14" font-family="SF Pro Text, Inter, Helvetica, sans-serif">to AI-assisted cleanup</text>

    <rect x="1140" y="422" width="78" height="28" rx="14" fill="#171717" stroke="#2D2D2D"/>
    <text x="1162" y="440" fill="#D8D8D8" font-size="12" font-family="SF Pro Text, Inter, Helvetica, sans-serif">active</text>
    <rect x="1228" y="422" width="88" height="28" rx="14" fill="#0F172A" stroke="#1E3A5F"/>
    <text x="1254" y="440" fill="#93C5FD" font-size="12" font-family="SF Pro Text, Inter, Helvetica, sans-serif">blue</text>
    <rect x="1326" y="422" width="92" height="28" rx="14" fill="#171717" stroke="#2D2D2D"/>
    <text x="1350" y="440" fill="#D8D8D8" font-size="12" font-family="SF Pro Text, Inter, Helvetica, sans-serif">research</text>

    <text x="1140" y="476" fill="#808080" font-size="13" font-family="SF Pro Text, Inter, Helvetica, sans-serif">Quick actions</text>
    <rect x="1140" y="486" width="92" height="30" rx="15" fill="#171717" stroke="#2D2D2D"/>
    <text x="1164" y="505" fill="#FFFFFF" font-size="12" font-family="SF Pro Text, Inter, Helvetica, sans-serif">Send branch</text>
    <rect x="1242" y="486" width="74" height="30" rx="15" fill="#171717" stroke="#2D2D2D"/>
    <text x="1264" y="505" fill="#FFFFFF" font-size="12" font-family="SF Pro Text, Inter, Helvetica, sans-serif">Rewrite</text>
    <rect x="1326" y="486" width="94" height="30" rx="15" fill="#171717" stroke="#2D2D2D"/>
    <text x="1350" y="505" fill="#FFFFFF" font-size="12" font-family="SF Pro Text, Inter, Helvetica, sans-serif">Summarize</text>
  </g>

  <rect x="78" y="908" width="236" height="28" rx="14" fill="#0B0B0B" stroke="#262626"/>
  <text x="102" y="926" fill="#767676" font-size="12" font-family="SF Pro Text, Inter, Helvetica, sans-serif">custom editor stays canvas-first</text>
</svg>
